<svg width="166" height="42" viewBox="0 0 166 42" fill="none" xmlns="http://www.w3.org/2000/svg">
<path d="M24.0724 0.240012L19.6804 17.088H14.7124L12.0244 6.00001L9.24039 17.088H4.27239L0.000390634 0.240012H4.39239L6.81639 12.504L9.81639 0.240012H14.3284L17.2084 12.504L19.6564 0.240012H24.0724ZM30.2346 3.52801V6.93601H35.7306V10.104H30.2346V13.8H36.4506V17.088H26.1306V0.240012H36.4506V3.52801H30.2346ZM45.211 17.256C43.979 17.256 42.875 17.056 41.899 16.656C40.923 16.256 40.139 15.664 39.547 14.88C38.971 14.096 38.667 13.152 38.635 12.048H43.003C43.067 12.672 43.283 13.152 43.651 13.488C44.019 13.808 44.499 13.968 45.091 13.968C45.699 13.968 46.179 13.832 46.531 13.56C46.883 13.272 47.059 12.88 47.059 12.384C47.059 11.968 46.915 11.624 46.627 11.352C46.355 11.08 46.011 10.856 45.595 10.68C45.195 10.504 44.619 10.304 43.867 10.08C42.779 9.74401 41.891 9.40801 41.203 9.07201C40.515 8.73601 39.923 8.24001 39.427 7.58401C38.931 6.92801 38.683 6.07201 38.683 5.01601C38.683 3.44801 39.251 2.22401 40.387 1.34401C41.523 0.448012 43.003 1.23978e-05 44.827 1.23978e-05C46.683 1.23978e-05 48.179 0.448012 49.315 1.34401C50.451 2.22401 51.059 3.45601 51.139 5.04001H46.699C46.667 4.49601 46.467 4.07201 46.099 3.76801C45.731 3.44801 45.259 3.28801 44.683 3.28801C44.187 3.28801 43.787 3.42401 43.483 3.69601C43.179 3.95201 43.027 4.32801 43.027 4.82401C43.027 5.36801 43.283 5.79201 43.795 6.09601C44.307 6.40001 45.107 6.72801 46.195 7.08001C47.283 7.44801 48.163 7.80001 48.835 8.13601C49.523 8.47201 50.115 8.96001 50.611 9.60001C51.107 10.24 51.355 11.064 51.355 12.072C51.355 13.032 51.107 13.904 50.611 14.688C50.131 15.472 49.427 16.096 48.499 16.56C47.571 17.024 46.475 17.256 45.211 17.256ZM66.0006 0.240012V3.52801H61.5366V17.088H57.4326V3.52801H52.9686V0.240012H66.0006ZM83.3462 8.44801C84.3222 8.65601 85.1062 9.14401 85.6982 9.91201C86.2902 10.664 86.5862 11.528 86.5862 12.504C86.5862 13.912 86.0902 15.032 85.0982 15.864C84.1222 16.68 82.7542 17.088 80.9942 17.088H73.1462V0.240012H80.7302C82.4422 0.240012 83.7782 0.632012 84.7382 1.41601C85.7142 2.20001 86.2022 3.26401 86.2022 4.60801C86.2022 5.60001 85.9382 6.42401 85.4102 7.08001C84.8982 7.73601 84.2102 8.19201 83.3462 8.44801ZM77.2502 7.05601H79.9382C80.6102 7.05601 81.1222 6.91201 81.4742 6.62401C81.8422 6.32001 82.0262 5.88001 82.0262 5.30401C82.0262 4.72801 81.8422 4.28801 81.4742 3.98401C81.1222 3.68001 80.6102 3.52801 79.9382 3.52801H77.2502V7.05601ZM80.2742 13.776C80.9622 13.776 81.4902 13.624 81.8582 13.32C82.2422 13 82.4342 12.544 82.4342 11.952C82.4342 11.36 82.2342 10.896 81.8342 10.56C81.4502 10.224 80.9142 10.056 80.2262 10.056H77.2502V13.776H80.2742ZM93.0705 3.52801V6.93601H98.5665V10.104H93.0705V13.8H99.2865V17.088H88.9665V0.240012H99.2865V3.52801H93.0705ZM112.439 14.112H106.151L105.143 17.088H100.847L106.943 0.240012H111.695L117.791 17.088H113.447L112.439 14.112ZM111.383 10.944L109.295 4.77601L107.231 10.944H111.383ZM123.678 0.240012V10.32C123.678 11.328 123.926 12.104 124.422 12.648C124.918 13.192 125.646 13.464 126.606 13.464C127.566 13.464 128.302 13.192 128.814 12.648C129.326 12.104 129.582 11.328 129.582 10.32V0.240012H133.686V10.296C133.686 11.8 133.366 13.072 132.726 14.112C132.086 15.152 131.222 15.936 130.134 16.464C129.062 16.992 127.862 17.256 126.534 17.256C125.206 17.256 124.014 17 122.958 16.488C121.918 15.96 121.094 15.176 120.486 14.136C119.878 13.08 119.574 11.8 119.574 10.296V0.240012H123.678ZM148.688 0.240012V3.52801H144.224V17.088H140.12V3.52801H135.656V0.240012H148.688ZM165.196 0.240012L159.364 11.52V17.088H155.26V11.52L149.428 0.240012H154.084L157.348 7.29601L160.588 0.240012H165.196ZM4.99239 27.528V30.936H10.4884V34.104H4.99239V37.8H11.2084V41.088H0.888391V24.24H11.2084V27.528H4.99239ZM29.6888 24.24L23.7128 41.088H18.5768L12.6008 24.24H16.9688L21.1448 36.96L25.3448 24.24H29.6888ZM35.508 27.528V30.936H41.004V34.104H35.508V37.8H41.724V41.088H31.404V24.24H41.724V27.528H35.508ZM59.4604 41.088H55.3564L48.4924 30.696V41.088H44.3884V24.24H48.4924L55.3564 34.68V24.24H59.4604V41.088ZM74.5553 24.24V27.528H70.0913V41.088H65.9873V27.528H61.5233V24.24H74.5553Z" fill="#121212"/>
</svg>
