<!--Generated by IcoMoon.io--><svg version="1.1" xmlns="http://www.w3.org/2000/svg" viewBox="0 0 768 768"><path d="M736 384c0-97.184-39.424-185.248-103.104-248.896S481.184 32 384 32 198.752 71.424 135.104 135.104 32 286.816 32 384s39.424 185.248 103.104 248.896S286.816 736 384 736s185.248-39.424 248.896-103.104S736 481.184 736 384m-64 0c0 79.552-32.192 151.488-84.352 203.648S463.552 672 384 672s-151.488-32.192-203.648-84.352S96 463.552 96 384s32.192-151.488 84.352-203.648S304.448 96 384 96s151.488 32.192 203.648 84.352S672 304.448 672 384M352 256v128c0 17.664 14.336 32 32 32s32-14.336 32-32V256c0-17.664-14.336-32-32-32s-32 14.336-32 32m32 288c17.664 0 32-14.336 32-32s-14.336-32-32-32-32 14.336-32 32 14.336 32 32 32"/></svg>