<!--Generated by IcoMoon.io--><svg version="1.1" xmlns="http://www.w3.org/2000/svg" viewBox="0 0 768 768"><path d="M480 384c0 26.528-10.72 50.464-28.128 67.872S410.528 480 384 480s-50.464-10.72-67.872-28.128S288 410.528 288 384s10.72-50.464 28.128-67.872S357.472 288 384 288s50.464 10.72 67.872 28.128S480 357.472 480 384m23.68 106.176a129.6 129.6 0 0 0 13.792 16.32C540.608 529.632 572.672 544 608 544s67.392-14.368 90.496-37.504S736 451.328 736 416v-32c0-97.184-39.456-185.248-103.104-248.896S481.184 32 383.968 32.032 198.752 71.456 135.072 135.136 32 286.848 32 384.032 71.456 569.28 135.104 632.928 286.816 736.032 384 736c80.8 0 155.36-27.264 214.08-72.608 13.984-10.784 16.576-30.88 5.76-44.896s-30.88-16.576-44.896-5.76C511.36 649.472 450.88 671.744 385.024 672c-81.28-.288-152.832-32.448-204.736-84.352C128.224 535.52 96 463.584 96 384.032s32.192-151.488 84.352-203.648S304.448 96.032 384 96.032s151.488 32.192 203.648 84.352S672 304.48 672 384v32c0 17.696-7.136 33.632-18.752 45.248S625.696 480 608 480s-33.632-7.136-45.248-18.752S544 433.696 544 416V256c0-17.664-14.336-32-32-32s-32 14.336-32 32c-26.72-20.064-60-32-96-32-44.16 0-84.224 17.952-113.152 46.848S224 339.84 224 384s17.952 84.224 46.848 113.152S339.84 544 384 544s84.224-17.952 113.152-46.848c2.24-2.24 4.448-4.576 6.56-6.944z"/></svg>