<!--Generated by IcoMoon.io--><svg version="1.1" xmlns="http://www.w3.org/2000/svg" viewBox="0 0 512 512"><path d="m318.425 464.705 182.85-182.85c14.299-14.299 14.299-37.448 0-51.71l-182.85-182.85c-14.299-14.299-37.448-14.299-51.711 0s-14.299 37.448 0 51.71L423.709 256 266.714 412.995c-14.299 14.299-14.299 37.448 0 51.711s37.448 14.299 51.711 0zm-255.991 0 182.85-182.85c14.299-14.299 14.299-37.448 0-51.71L62.434 47.295c-14.299-14.299-37.448-14.299-51.711 0s-14.299 37.448 0 51.71L167.718 256 10.723 412.995c-14.299 14.299-14.299 37.448 0 51.711s37.448 14.299 51.711 0z"/></svg>