<!--Generated by IcoMoon.io--><svg version="1.1" xmlns="http://www.w3.org/2000/svg" viewBox="0 0 512 512"><path d="m464.705 193.575-182.85-182.85c-14.299-14.299-37.448-14.299-51.71 0l-182.85 182.85c-14.299 14.299-14.299 37.448 0 51.71s37.448 14.299 51.71 0L256 88.29l156.995 156.995c14.299 14.299 37.448 14.299 51.711 0s14.299-37.448 0-51.71zm0 255.99-182.85-182.85c-14.299-14.299-37.448-14.299-51.71 0l-182.85 182.85c-14.299 14.299-14.299 37.448 0 51.711s37.448 14.299 51.71 0L256 344.281l156.995 156.995c14.299 14.299 37.448 14.299 51.711 0s14.299-37.448 0-51.711z"/></svg>