<!--Generated by IcoMoon.io--><svg version="1.1" xmlns="http://www.w3.org/2000/svg" viewBox="0 0 512 512"><path d="m47.294 318.425 182.85 182.85c14.299 14.299 37.448 14.299 51.711 0l182.85-182.85c14.299-14.299 14.299-37.448 0-51.711s-37.448-14.299-51.711 0L255.999 423.709 99.004 266.714c-14.299-14.299-37.448-14.299-51.711 0s-14.299 37.448 0 51.711zm0-255.991 182.85 182.85c14.299 14.299 37.448 14.299 51.711 0l182.85-182.85c14.299-14.299 14.299-37.448 0-51.711s-37.448-14.299-51.711 0L255.999 167.718 99.004 10.723c-14.299-14.299-37.448-14.299-51.711 0s-14.299 37.448 0 51.711z"/></svg>