<!--Generated by IcoMoon.io--><svg version="1.1" xmlns="http://www.w3.org/2000/svg" viewBox="0 0 512 512"><path d="M245.285 412.995 88.29 256 245.285 99.005c14.299-14.299 14.299-37.448 0-51.711s-37.448-14.299-51.71 0L10.724 230.145c-14.299 14.299-14.299 37.448 0 51.71l182.851 182.851c14.299 14.299 37.448 14.299 51.71 0s14.299-37.448 0-51.711m255.991 0L344.281 256 501.276 99.005c14.299-14.299 14.299-37.448 0-51.711s-37.448-14.299-51.711 0L266.714 230.145c-14.299 14.299-14.299 37.448 0 51.71l182.851 182.851c14.299 14.299 37.448 14.299 51.711 0s14.299-37.448 0-51.711"/></svg>