<!--Generated by IcoMoon.io--><svg version="1.1" xmlns="http://www.w3.org/2000/svg" viewBox="0 0 768 768"><path d="M324.096 166.848c20.832-4.864 41.472-7.072 59.52-6.848 56.256 0 105.888 17.888 149.056 44.576 35.808 22.144 66.848 50.144 92.608 78.336 20.608 22.56 37.6 44.96 50.72 64.032 10.464 15.2 18.24 27.968 23.456 36.96-17.472 30.496-37.12 58.272-56.896 81.344-11.488 13.408-9.952 33.632 3.456 45.12s33.632 9.952 45.12-3.456c26.176-30.528 51.552-67.584 73.056-107.84 4.736-8.928 5.216-19.776.416-29.408 0 0-12.672-25.248-35.84-58.976-14.432-20.992-33.216-45.824-56.224-70.976-28.608-31.328-64.128-63.584-106.208-89.6C515.296 118.592 454.144 96 384.384 96c-23.488-.288-49.28 2.528-74.88 8.512-17.216 4.032-27.904 21.248-23.872 38.464s21.248 27.904 38.464 23.872m-3.232 199.296 80.992 80.992c-5.824 1.952-11.904 3.008-18.016 3.232-16.416.576-32.96-5.088-45.888-17.152s-19.744-28.16-20.32-44.576c-.256-7.616.8-15.232 3.232-22.528zm-129.408-129.44 81.696 81.696c-13.888 22.112-20.352 47.488-19.456 72.512 1.152 32.704 14.816 65.056 40.672 89.12s59.072 35.424 91.776 34.272c22.144-.768 44.128-7.296 63.488-19.456l74.304 74.304C479.84 594.72 431.296 607.424 383.648 608c-55.488 0-105.12-17.888-148.288-44.576-35.808-22.144-66.848-50.144-92.608-78.336-20.608-22.56-37.6-44.96-50.72-64.032-10.432-15.2-18.24-27.936-23.424-36.928C102.208 325.824 144.64 276 191.52 236.704zM9.376 54.624l136.672 136.672C90.656 238.624 41.44 298.752 3.808 368.864c-4.736 8.928-5.248 19.808-.416 29.44 0 0 12.672 25.248 35.84 58.976 14.432 20.992 33.216 45.824 56.224 70.976 28.608 31.328 64.128 63.584 106.208 89.6C252.704 649.408 313.856 672 384.384 672c63.776-.768 128.608-19.232 186.08-56.288l142.912 142.912c12.512 12.512 32.768 12.512 45.248 0s12.512-32.768 0-45.248L474.592 429.344l-.224-.224L339.68 294.4c-.256-.224-.512-.512-.768-.768L54.624 9.376c-12.512-12.512-32.768-12.512-45.248 0s-12.512 32.768 0 45.248"/></svg>