<!--Generated by IcoMoon.io--><svg version="1.1" xmlns="http://www.w3.org/2000/svg" viewBox="0 0 768 768"><path d="M3.392 369.696c-4.352 8.768-4.672 19.296 0 28.608 0 0 12.672 25.248 35.84 58.976 14.432 20.992 33.216 45.824 56.224 70.976 28.608 31.328 64.128 63.584 106.208 89.6C252.704 649.408 313.856 672 384 672s131.296-22.592 182.336-54.144c42.08-26.016 77.6-58.272 106.208-89.6 22.976-25.152 41.792-49.984 56.224-70.976 23.168-33.728 35.84-58.976 35.84-58.976 4.352-8.768 4.672-19.296 0-28.608 0 0-12.672-25.248-35.84-58.976-14.432-20.992-33.216-45.824-56.224-70.976-28.608-31.328-64.128-63.584-106.208-89.6C515.296 118.592 454.144 96 384 96s-131.296 22.592-182.336 54.144c-42.08 26.016-77.6 58.272-106.208 89.6-23.008 25.152-41.792 49.952-56.224 70.976-23.168 33.728-35.84 58.976-35.84 58.976M68.48 384c5.216-8.992 13.024-21.792 23.488-37.056 13.12-19.072 30.08-41.472 50.72-64.032 25.76-28.192 56.8-56.192 92.608-78.336C278.496 177.888 328.128 160 384 160s105.504 17.888 148.672 44.576c35.808 22.144 66.848 50.144 92.608 78.336 20.608 22.56 37.6 44.96 50.72 64.032 10.496 15.264 18.304 28.032 23.488 37.056-5.216 8.992-13.024 21.792-23.488 37.056-13.12 19.072-30.08 41.472-50.72 64.032-25.76 28.192-56.8 56.192-92.608 78.336C489.504 590.112 439.872 608 384 608s-105.504-17.888-148.672-44.576c-35.808-22.144-66.848-50.144-92.608-78.336-20.608-22.56-37.6-44.96-50.72-64.032C81.504 405.792 73.696 392.992 68.48 384M512 384c0-35.328-14.368-67.392-37.504-90.496S419.328 256 384 256s-67.392 14.368-90.496 37.504S256 348.672 256 384s14.368 67.392 37.504 90.496S348.672 512 384 512s67.392-14.368 90.496-37.504S512 419.328 512 384m-64 0c0 17.696-7.136 33.632-18.752 45.248S401.696 448 384 448s-33.632-7.136-45.248-18.752S320 401.696 320 384s7.136-33.632 18.752-45.248S366.304 320 384 320s33.632 7.136 45.248 18.752S448 366.304 448 384"/></svg>