<!--Generated by IcoMoon.io--><svg version="1.1" xmlns="http://www.w3.org/2000/svg" viewBox="0 0 512 512"><path d="M512 256c0-70.68-28.672-134.726-74.985-181.015S326.678 0 256 0 121.274 28.672 74.985 74.985 0 185.322 0 256s28.672 134.726 74.985 181.015S185.322 512 256 512s134.726-28.672 181.015-74.985S512 326.678 512 256m-46.546 0c0 57.856-23.413 110.173-61.347 148.108s-90.252 61.347-148.108 61.347-110.173-23.413-148.108-61.347S46.544 313.856 46.544 256s23.413-110.173 61.347-148.108 90.251-61.347 148.108-61.347 110.173 23.413 148.108 61.347S465.454 198.143 465.454 256m-186.181 93.091V256c0-12.846-10.426-23.273-23.273-23.273S232.727 243.154 232.727 256v93.091c0 12.846 10.427 23.273 23.273 23.273s23.273-10.426 23.273-23.273M256 186.182c12.846 0 23.273-10.427 23.273-23.273S268.847 139.636 256 139.636s-23.273 10.427-23.273 23.273 10.427 23.273 23.273 23.273"/></svg>