<!--Generated by IcoMoon.io--><svg version="1.1" xmlns="http://www.w3.org/2000/svg" viewBox="0 0 512 512"><path d="m46.545 161.071 196.119 137.286c7.913 5.469 18.502 5.725 26.694 0l196.095-137.286v234.565c0 6.33-2.56 12.125-6.865 16.408s-10.077 6.865-16.408 6.865H69.817c-6.33 0-12.125-2.56-16.407-6.865s-6.865-10.077-6.865-16.408zM.001 115.968v279.668c0 19.27 7.913 36.748 20.48 49.338s30.068 20.48 49.338 20.48h372.364c19.27 0 36.748-7.913 49.338-20.48s20.48-30.068 20.48-49.338V115.945c-.116-19.106-7.983-36.421-20.48-48.919-12.591-12.568-30.068-20.48-49.338-20.48H69.82c-19.27 0-36.748 7.913-49.338 20.48C7.984 79.524.119 96.839.002 115.968zm462.987-9.984L256 250.857 49.012 105.984a23.2 23.2 0 0 1 4.375-6.028c4.306-4.305 10.1-6.865 16.43-6.865H442.18c6.33 0 12.125 2.56 16.407 6.865a23.6 23.6 0 0 1 4.375 6.028z"/></svg>