<!--Generated by IcoMoon.io--><svg version="1.1" xmlns="http://www.w3.org/2000/svg" viewBox="0 0 768 768"><path d="M704 320c0-88.352-35.84-168.416-93.728-226.272S472.352 0 384 0 215.584 35.84 157.728 93.728 64 231.648 64 320c0 18.208 1.696 36.096 4.8 53.632 8.768 49.536 28.768 96.128 53.824 138.24C210.048 658.784 366.24 762.624 366.24 762.624c10.592 6.944 24.48 7.328 35.488 0 0 0 156.224-103.84 243.616-250.752 25.056-42.112 45.056-88.704 53.824-138.24C702.304 356.096 704 338.208 704 320m-64 0c0 14.208-1.312 28.384-3.808 42.496-7.072 40-23.584 79.296-45.824 116.672-61.184 102.848-161.152 183.904-203.808 215.68-44.736-29.312-146.816-111.264-208.96-215.68-22.24-37.376-38.752-76.672-45.824-116.672C129.312 348.384 128 334.208 128 320c0-70.688 28.608-134.656 74.976-181.024S313.312 64 384 64s134.656 28.608 181.024 74.976S640 249.312 640 320m-128 0c0-35.328-14.368-67.392-37.504-90.496S419.328 192 384 192s-67.392 14.368-90.496 37.504S256 284.672 256 320s14.368 67.392 37.504 90.496S348.672 448 384 448s67.392-14.368 90.496-37.504S512 355.328 512 320m-64 0c0 17.696-7.136 33.632-18.752 45.248S401.696 384 384 384s-33.632-7.136-45.248-18.752S320 337.696 320 320s7.136-33.632 18.752-45.248S366.304 256 384 256s33.632 7.136 45.248 18.752S448 302.304 448 320"/></svg>