<!--Generated by IcoMoon.io--><svg version="1.1" xmlns="http://www.w3.org/2000/svg" viewBox="0 0 512 512"><path d="M359.449 354.712q-1.306.999-2.534 2.227c-1.228 1.228-1.536 1.639-2.227 2.534-32.204 31.053-76.005 50.124-124.286 50.124-49.484 0-94.258-20.019-126.719-52.48s-52.48-77.234-52.48-126.719 20.019-94.258 52.48-126.719 77.234-52.48 126.719-52.48 94.258 20.019 126.719 52.48S409.6 180.913 409.6 230.398c0 48.281-19.072 92.082-50.15 124.312zm145.047 113.586-94.079-94.079c31.514-39.423 50.38-89.42 50.38-143.819 0-63.615-25.805-121.24-67.481-162.917S294.015.002 230.399.002 109.159 25.807 67.482 67.483.001 166.784.001 230.4s25.805 121.24 67.481 162.917 99.301 67.481 162.917 67.481c54.4 0 104.395-18.867 143.819-50.38l94.079 94.079c10.01 10.009 26.214 10.009 36.198 0s10.009-26.214 0-36.198z"/></svg>