<!--Generated by IcoMoon.io--><svg version="1.1" xmlns="http://www.w3.org/2000/svg" viewBox="0 0 512 512"><path d="M354.072 397.918a26 26 0 0 0 1.63-2.42c.466-.815.884-1.652 1.257-2.49a47.5 47.5 0 0 1 5.772-7.005c8.448-8.448 20.038-13.638 32.908-13.638s24.46 5.19 32.908 13.638 13.638 20.038 13.638 32.908-5.19 24.46-13.638 32.908-20.038 13.638-32.908 13.638-24.46-5.19-32.908-13.638-13.638-20.038-13.638-32.908c0-7.564 1.792-14.685 4.981-20.992zm2.024-280.252c-.209-.395-.419-.791-.652-1.187s-.466-.791-.721-1.163c-3.584-6.587-5.632-14.15-5.632-22.225 0-12.87 5.19-24.46 13.638-32.908s20.038-13.638 32.908-13.638 24.46 5.19 32.908 13.638 13.638 20.038 13.638 32.908-5.19 24.46-13.638 32.908-20.038 13.638-32.908 13.638-24.46-5.19-32.908-13.638a46.7 46.7 0 0 1-6.632-8.332zM155.904 231.424c.209.395.419.792.652 1.187s.465.792.721 1.163c3.584 6.587 5.632 14.149 5.632 22.225s-2.048 15.639-5.655 22.248c-.256.373-.488.768-.721 1.163s-.442.768-.629 1.163a46.8 46.8 0 0 1-6.632 8.332c-8.448 8.448-20.038 13.638-32.908 13.638s-24.46-5.19-32.908-13.638-13.638-20.038-13.638-32.908 5.19-24.46 13.638-32.908 20.038-13.638 32.908-13.638 24.46 5.19 32.908 13.638a46.7 46.7 0 0 1 6.632 8.332zm150.132-113.012-123.532 72.076c-.094-.116-.209-.209-.326-.326-16.803-16.803-40.122-27.252-65.816-27.252s-49.013 10.45-65.816 27.275S23.27 230.307 23.27 256s10.45 49.012 27.276 65.815 40.122 27.276 65.816 27.276 49.013-10.45 65.816-27.276l.326-.325 123.555 72.006a93.5 93.5 0 0 0-3.514 25.414c0 25.693 10.45 49.012 27.276 65.815s40.122 27.276 65.815 27.276 49.012-10.45 65.815-27.276 27.276-40.122 27.276-65.815-10.45-49.012-27.276-65.815-40.122-27.276-65.815-27.276-49.012 10.45-65.815 27.276l-.233.233-123.625-72.029c2.28-8.053 3.491-16.524 3.491-25.298s-1.21-17.268-3.491-25.321l123.532-72.099c.094.116.209.209.325.326 16.803 16.826 40.122 27.275 65.815 27.275s49.012-10.45 65.815-27.275 27.276-40.122 27.276-65.816-10.45-49.013-27.276-65.816S421.328-.001 395.635-.001s-49.012 10.45-65.815 27.276-27.276 40.122-27.276 65.816c0 8.773 1.211 17.269 3.491 25.32z"/></svg>