<!--Generated by IcoMoon.io--><svg version="1.1" xmlns="http://www.w3.org/2000/svg" viewBox="0 0 439 512"><path d="M277.428 355.428v60.286c0 12.857-3.714 19.143-11.143 19.143-4.286 0-8.572-2-12.857-6.286v-86c4.285-4.286 8.571-6.286 12.857-6.286 7.428 0 11.143 6.572 11.143 19.143m96.572.286v13.143h-25.714v-13.143c0-12.857 4.286-19.428 12.857-19.428S374 342.858 374 355.714M98 293.428h30.572v-26.857H39.429v26.857h30V456h28.572V293.428zM180.286 456h25.428V314.857h-25.428v108q-8.571 12-16.286 12-5.143 0-6-6c-.286-.857-.286-4-.286-10v-104h-25.428v111.714c0 10 .857 16.572 2.286 20.857 2.286 7.143 8.286 10.572 16.572 10.572 9.143 0 18.857-5.714 29.143-17.428V456zm122.571-42.286v-56.286c0-13.143-.572-22.572-2.572-28.286-3.143-10.572-10.286-16-20.286-16q-14.142 0-26.572 15.428v-62h-25.428v189.429h25.428v-13.714c8.572 10.572 17.428 15.714 26.572 15.714 10 0 17.143-5.428 20.286-15.714 2-6 2.572-15.428 2.572-28.572zm96.571-2.857v-3.714h-26c0 10.286-.286 16-.572 17.428-1.428 6.857-5.143 10.286-11.428 10.286-8.857 0-13.143-6.572-13.143-19.714v-24.857h51.143v-29.428c0-15.143-2.572-26-7.714-33.143-7.428-9.714-17.428-14.572-30.286-14.572-13.143 0-23.143 4.857-30.572 14.572-5.428 7.143-8 18-8 33.143v49.428c0 15.143 2.857 26.286 8.286 33.143 7.428 9.714 17.428 14.572 30.857 14.572s24-5.143 30.857-15.143c3.143-4.572 5.428-9.714 6-15.428.572-2.572.572-8.286.572-16.572zM225.714 150V90c0-13.143-3.714-19.715-12.286-19.715-8.286 0-12.286 6.572-12.286 19.715v60c0 13.143 4 20 12.286 20 8.572 0 12.286-6.857 12.286-20m205.429 214.572c0 32.857-.286 68-7.428 100-5.428 22.572-23.714 39.143-45.714 41.428-52.572 6-105.714 6-158.571 6s-106 0-158.571-6c-22-2.286-40.572-18.857-45.715-41.428-7.428-32-7.428-67.143-7.428-100 0-33.143.285-68 7.428-100 5.428-22.572 23.715-39.143 46-41.714 52.285-5.714 105.428-5.714 158.286-5.714s106 0 158.571 5.714c22 2.571 40.572 19.143 45.714 41.714 7.428 32 7.428 66.857 7.428 100M146 0h29.143l-34.571 114v77.428H112V114c-2.572-14-8.285-34-17.428-60.572C88.287 35.713 82 17.713 76 0h30.285l20.285 75.143zm105.714 95.143v50c0 15.143-2.571 26.571-8 33.715-7.143 9.714-17.143 14.572-30.286 14.572q-19.286 0-30-14.572c-5.428-7.428-8-18.572-8-33.714v-50c0-15.143 2.571-26.285 8-33.428q10.714-14.572 30-14.572c13.143 0 23.143 4.857 30.286 14.572 5.428 7.143 8 18.285 8 33.428zm95.714-46.286v142.571h-26v-15.714c-10.286 12-20 17.714-29.428 17.714-8.286 0-14.286-3.429-16.857-10.572-1.428-4.286-2.286-11.143-2.286-21.428V48.856h26v104.857c0 6 0 9.428.286 10 .572 4 2.572 6.286 6 6.286 5.143 0 10.572-4 16.286-12.286V48.856h26z"/></svg>